<?xml version="1.0" standalone="no"?>
<!DOCTYPE svg PUBLIC "-//W3C//DTD SVG 20010904//EN"
 "http://www.w3.org/TR/2001/REC-SVG-20010904/DTD/svg10.dtd">
<svg version="1.0" xmlns="http://www.w3.org/2000/svg"
 width="1280.000000pt" height="1232.000000pt" viewBox="0 0 1280.000000 1232.000000"
 preserveAspectRatio="xMidYMid meet">
<g transform="translate(0.000000,1232.000000) scale(0.100000,-0.100000)"
fill="#000000" stroke="none">
<path d="M8425 12286 c-163 -42 -254 -75 -378 -137 -487 -242 -884 -727 -1109
-1354 -97 -272 -147 -491 -184 -815 -28 -252 -31 -464 -9 -654 86 -733 432
-1310 940 -1563 310 -156 606 -178 889 -66 654 257 1149 839 1390 1635 115
381 160 830 121 1218 -29 295 -43 386 -76 510 -98 365 -310 716 -563 928 -203
171 -392 262 -636 307 -166 31 -237 29 -385 -9z"/>
<path d="M3813 12245 c-398 -72 -779 -397 -998 -850 -94 -196 -143 -370 -181
-645 -25 -177 -25 -593 -1 -785 114 -900 530 -1644 1154 -2061 129 -86 341
-191 484 -239 104 -35 125 -38 249 -43 96 -3 161 0 225 12 290 50 554 205 753
441 239 284 394 664 454 1115 16 122 16 532 -1 670 -96 798 -385 1437 -852
1885 -223 214 -449 352 -729 446 -200 67 -387 85 -557 54z"/>
<path d="M11399 8595 c-405 -66 -764 -253 -1083 -564 -210 -206 -376 -432
-517 -705 -173 -336 -252 -590 -321 -1036 -31 -203 -31 -502 0 -673 66 -358
205 -651 414 -872 185 -196 405 -314 653 -351 167 -25 406 5 633 81 808 270
1468 1185 1587 2200 8 72 15 150 15 174 0 25 5 82 12 128 10 71 9 105 -6 226
-36 293 -84 464 -191 682 -176 358 -471 612 -809 696 -105 26 -275 33 -387 14z"/>
<path d="M1105 8343 c-16 -2 -73 -13 -125 -24 -398 -89 -725 -373 -850 -741
-41 -123 -77 -278 -95 -413 -8 -66 -20 -154 -25 -195 -15 -109 -12 -187 10
-382 25 -215 41 -307 86 -478 96 -369 297 -766 540 -1070 88 -109 275 -296
384 -384 269 -215 590 -373 912 -447 139 -32 328 -30 463 5 372 97 692 407
833 807 37 104 76 293 92 446 16 145 8 511 -14 653 -139 881 -671 1649 -1422
2054 -187 100 -274 132 -438 161 -80 13 -269 18 -351 8z"/>
<path d="M6270 5899 c-781 -85 -1497 -417 -2078 -961 -156 -146 -245 -248
-414 -473 -429 -569 -774 -1171 -1011 -1760 -113 -283 -188 -530 -303 -1000
-40 -164 -47 -208 -52 -326 -16 -454 213 -896 596 -1146 229 -150 431 -201
764 -190 394 12 653 79 1448 375 600 223 879 298 1235 332 322 30 368 32 522
21 366 -28 672 -111 1213 -331 891 -361 874 -355 1040 -389 218 -45 401 -60
497 -42 26 6 95 17 153 27 318 50 600 210 774 438 148 193 206 398 206 716 -1
377 -114 751 -409 1355 -121 247 -185 354 -498 829 -703 1067 -1282 1688
-1983 2129 -375 235 -705 348 -1165 397 -106 12 -427 11 -535 -1z"/>
</g>
</svg>
